<svg width="38" height="38" viewBox="0 0 38 38" fill="none" xmlns="http://www.w3.org/2000/svg">
<circle cx="19" cy="19" r="19" fill="#3E4096" fill-opacity="0.16"/>
<path d="M18.142 9.86105C18.142 10.4691 18.142 11.073 18.142 11.681C18.142 13.1369 18.142 14.5929 18.142 16.0488C18.142 17.8026 18.142 19.5563 18.142 21.3142C18.142 22.8363 18.142 24.3626 18.142 25.8847C18.142 26.6251 18.1213 27.3696 18.142 28.1059C18.142 28.1183 18.142 28.1265 18.142 28.139C18.142 28.5898 18.5391 29.02 19.0023 28.9993C19.4697 28.9786 19.8627 28.6188 19.8627 28.139C19.8627 27.5309 19.8627 26.927 19.8627 26.319C19.8627 24.8631 19.8627 23.4071 19.8627 21.9512C19.8627 20.1974 19.8627 18.4437 19.8627 16.6858C19.8627 15.1637 19.8627 13.6374 19.8627 12.1153C19.8627 11.3749 19.8833 10.6304 19.8627 9.89414C19.8627 9.88173 19.8627 9.87346 19.8627 9.86105C19.8627 9.4102 19.4656 8.98004 19.0023 9.00072C18.5349 9.0214 18.142 9.38125 18.142 9.86105Z" fill="#3E4096"/>
<path d="M9.86105 19.8617C10.4691 19.8617 11.073 19.8617 11.681 19.8617C13.1369 19.8617 14.5929 19.8617 16.0488 19.8617C17.8026 19.8617 19.5563 19.8617 21.3142 19.8617C22.8363 19.8617 24.3626 19.8617 25.8847 19.8617C26.6251 19.8617 27.3696 19.8824 28.1059 19.8617C28.1183 19.8617 28.1265 19.8617 28.139 19.8617C28.5898 19.8617 29.02 19.4646 28.9993 19.0014C28.9786 18.534 28.6188 18.141 28.139 18.141C27.5309 18.141 26.927 18.141 26.319 18.141C24.8631 18.141 23.4071 18.141 21.9512 18.141C20.1974 18.141 18.4437 18.141 16.6858 18.141C15.1637 18.141 13.6374 18.141 12.1153 18.141C11.3749 18.141 10.6304 18.1203 9.89414 18.141C9.88173 18.141 9.87346 18.141 9.86105 18.141C9.4102 18.141 8.98004 18.5381 9.00072 19.0014C9.0214 19.4688 9.38125 19.8617 9.86105 19.8617Z" fill="#3E4096"/>
</svg>
