<svg width="209" height="64" viewBox="0 0 209 64" fill="none" xmlns="http://www.w3.org/2000/svg">
<path d="M51.3454 0H11.7007C5.23772 0 0 5.23772 0 11.7007V51.3454C0 57.8084 5.23772 63.0461 11.7007 63.0461H51.3454C57.8084 63.0461 63.0461 57.8084 63.0461 51.3454V11.7007C63.0461 5.23772 57.8084 0 51.3454 0ZM14.3769 12.6608C14.6563 12.5462 14.9644 12.4853 15.2868 12.4853L39.9922 12.4817C41.35 12.4853 42.4535 13.5851 42.4535 14.9429V15.4373C42.4535 16.7987 41.35 17.9021 39.9922 17.8985L15.2868 17.9021C14.968 17.9021 14.6599 17.8412 14.3769 17.7266V12.6608ZM14.3769 29.2123C14.6599 29.1012 14.968 29.0367 15.2868 29.0367H39.9958C41.35 29.0367 42.4535 30.1402 42.4535 31.4944V31.9959C42.4535 33.3502 41.35 34.4536 39.9958 34.4536H15.2868C14.9644 34.4536 14.6563 34.3891 14.3769 34.2745V29.2123ZM39.9958 50.5644H15.2868C14.9644 50.5644 14.6563 50.4999 14.3769 50.3853V45.3231C14.6599 45.2121 14.968 45.1476 15.2868 45.1476H39.9958C41.35 45.1476 42.4535 46.251 42.4535 47.6052V48.1068C42.4535 49.461 41.35 50.5644 39.9958 50.5644ZM47.8811 41.7549C47.3902 42.2457 46.7131 42.5502 45.9644 42.5502L15.4552 42.5538C15.0719 42.5538 14.7065 42.4714 14.3769 42.3245V37.3626C14.71 37.2193 15.0719 37.1405 15.4552 37.1405L45.9644 37.1369C47.4619 37.1369 48.6728 38.3478 48.6728 39.8453C48.6728 40.5905 48.3683 41.2641 47.8811 41.7549ZM47.8811 25.6441C47.3902 26.1349 46.7131 26.4394 45.9644 26.4394L15.4552 26.4358C15.0719 26.4358 14.7029 26.357 14.3769 26.2101V21.2411C14.7065 21.1013 15.0719 21.0154 15.4552 21.0154L45.9644 21.0189C47.4619 21.0189 48.6728 22.2298 48.6728 23.7274C48.6728 24.4797 48.3683 25.1532 47.8811 25.6441Z" fill="#FFCC29"/>
<path d="M113.392 38.5703C113.392 41.0279 113.03 43.2384 112.31 45.2088C111.59 47.1792 110.555 48.863 109.211 50.2674C107.868 51.6718 106.238 52.7429 104.328 53.4845C102.419 54.2261 100.255 54.5952 97.8364 54.5952C95.497 54.5952 93.265 54.4196 91.1406 54.0685C89.0161 53.7174 87.2535 53.3269 85.8491 52.9006V9.62312L92.9247 8.4552V24.3009C93.7415 23.871 94.7446 23.4841 95.9376 23.133C97.127 22.7819 98.4419 22.6064 99.8856 22.6064C102.028 22.6064 103.948 22.9861 105.646 23.7456C107.341 24.5051 108.756 25.5871 109.885 26.9914C111.013 28.3958 111.88 30.0796 112.486 32.05C113.091 34.0168 113.392 36.1915 113.392 38.5703ZM106.141 38.4521C106.141 35.4499 105.546 33.0711 104.357 31.3192C103.167 29.5637 101.286 28.6896 98.7141 28.6896C97.5426 28.6896 96.4428 28.8651 95.411 29.2162C94.3792 29.5673 93.5481 29.9578 92.9247 30.3841V47.9853C93.4298 48.1035 94.0854 48.211 94.8844 48.3077C95.6833 48.4045 96.647 48.4546 97.7791 48.4546C100.391 48.4546 102.436 47.5697 103.92 45.7928C105.399 44.0194 106.141 41.5725 106.141 38.4521Z" fill="#3E4096"/>
<path d="M125.673 14.3022C125.673 15.6277 125.243 16.681 124.387 17.4584C123.531 18.2394 122.517 18.6263 121.345 18.6263C120.138 18.6263 119.103 18.2358 118.246 17.4584C117.387 16.6774 116.96 15.6277 116.96 14.3022C116.96 12.9372 117.39 11.866 118.246 11.085C119.103 10.304 120.138 9.91711 121.345 9.91711C122.513 9.91711 123.527 10.3076 124.387 11.085C125.243 11.866 125.673 12.9372 125.673 14.3022ZM124.91 53.8323H117.834V23.2479H124.91V53.8323Z" fill="#3E4096"/>
<path d="M141.633 54.4159C139.527 54.3764 137.782 54.1436 136.399 53.7137C135.016 53.2838 133.913 52.6711 133.096 51.8722C132.279 51.0733 131.702 50.0809 131.369 48.8915C131.036 47.7021 130.871 46.3479 130.871 44.8289V9.62654L137.947 8.45862V43.4854C137.947 44.3452 138.015 45.0653 138.151 45.6493C138.287 46.2332 138.531 46.7312 138.882 47.1397C139.233 47.5481 139.71 47.8633 140.315 48.0747C140.92 48.2897 141.691 48.4545 142.626 48.5727L141.633 54.4159Z" fill="#3E4096"/>
<path d="M156.078 54.4159C153.972 54.3764 152.227 54.1436 150.844 53.7137C149.461 53.2838 148.358 52.6711 147.541 51.8722C146.724 51.0733 146.148 50.0809 145.814 48.8915C145.481 47.7021 145.316 46.3479 145.316 44.8289V9.62654L152.392 8.45862V43.4854C152.392 44.3452 152.46 45.0653 152.596 45.6493C152.732 46.2332 152.976 46.7312 153.327 47.1397C153.678 47.5481 154.155 47.8633 154.76 48.0747C155.366 48.2897 156.136 48.4545 157.071 48.5727L156.078 54.4159Z" fill="#3E4096"/>
<path d="M158.181 38.685C158.181 35.9945 158.583 33.6372 159.382 31.6094C160.18 29.5817 161.244 27.8979 162.57 26.5508C163.896 25.2074 165.415 24.1935 167.131 23.5092C168.847 22.8285 170.599 22.4846 172.393 22.4846C176.603 22.4846 179.888 23.7923 182.246 26.404C184.603 29.0156 185.785 32.9135 185.785 38.0974C185.785 38.488 185.774 38.925 185.756 39.4123C185.735 39.8995 185.706 40.3401 185.667 40.7271H165.493C165.687 43.1847 166.554 45.0835 168.094 46.4269C169.635 47.7704 171.867 48.4439 174.79 48.4439C176.506 48.4439 178.075 48.2899 179.498 47.9746C180.92 47.6629 182.041 47.3298 182.862 46.9822L183.797 52.7717C183.406 52.9687 182.869 53.1729 182.188 53.3843C181.507 53.5993 180.727 53.7927 179.849 53.9683C178.971 54.1438 178.025 54.2907 177.011 54.4053C175.998 54.5235 174.966 54.5809 173.912 54.5809C171.222 54.5809 168.883 54.1796 166.894 53.3807C164.906 52.5818 163.269 51.4712 161.982 50.0489C160.696 48.6266 159.74 46.95 159.116 45.019C158.493 43.1023 158.181 40.9886 158.181 38.685ZM178.706 35.5288C178.706 34.5543 178.57 33.63 178.298 32.7523C178.025 31.8745 177.624 31.115 177.097 30.4702C176.571 29.8253 175.929 29.3202 175.166 28.9512C174.407 28.5822 173.5 28.3959 172.447 28.3959C171.354 28.3959 170.402 28.6001 169.581 29.0085C168.764 29.4169 168.069 29.9543 167.507 30.617C166.941 31.2798 166.504 32.0393 166.192 32.8992C165.88 33.7554 165.665 34.6331 165.547 35.5288H178.706V35.5288Z" fill="#3E4096"/>
<path d="M207.771 29.6245C207.187 29.431 206.378 29.2268 205.346 29.0118C204.314 28.7969 203.114 28.6894 201.749 28.6894C200.968 28.6894 200.14 28.7682 199.263 28.9223C198.385 29.0799 197.772 29.2161 197.421 29.3307V53.8319H190.346V24.7128C191.711 24.2076 193.416 23.7275 195.462 23.2797C197.507 22.8319 199.779 22.6062 202.276 22.6062C202.745 22.6062 203.29 22.6349 203.913 22.6922C204.536 22.7495 205.16 22.8283 205.783 22.9251C206.406 23.0218 207.012 23.14 207.596 23.2761C208.18 23.4123 208.649 23.5377 209 23.6559L207.771 29.6245Z" fill="#3E4096"/>
</svg>
