<svg width="26" height="26" viewBox="0 0 26 26" fill="none" xmlns="http://www.w3.org/2000/svg">
<path d="M24.6317 20.385C24.6317 20.805 24.5384 21.2367 24.34 21.6567C24.1417 22.0767 23.885 22.4734 23.5467 22.8467C22.975 23.4767 22.345 23.9317 21.6334 24.2234C20.9334 24.515 20.175 24.6667 19.3584 24.6667C18.1684 24.6667 16.8967 24.3867 15.555 23.815C14.2134 23.2434 12.8717 22.4734 11.5417 21.505C10.2 20.525 8.92837 19.44 7.71504 18.2384C6.51337 17.025 5.42837 15.7534 4.46004 14.4234C3.50337 13.0934 2.73337 11.7634 2.17337 10.445C1.61337 9.11504 1.33337 7.84337 1.33337 6.63004C1.33337 5.83671 1.47337 5.07837 1.75337 4.37837C2.03337 3.66671 2.47671 3.01337 3.09504 2.43004C3.84171 1.69504 4.65837 1.33337 5.52171 1.33337C5.84837 1.33337 6.17504 1.40337 6.46671 1.54337C6.77004 1.68337 7.03837 1.89337 7.24837 2.19671L9.95504 6.01171C10.165 6.30337 10.3167 6.57171 10.4217 6.82837C10.5267 7.07337 10.585 7.31837 10.585 7.54004C10.585 7.82004 10.5034 8.10004 10.34 8.36837C10.1884 8.63671 9.96671 8.91671 9.68671 9.19671L8.80004 10.1184C8.67171 10.2467 8.61337 10.3984 8.61337 10.585C8.61337 10.6784 8.62504 10.76 8.64837 10.8534C8.68337 10.9467 8.71837 11.0167 8.74171 11.0867C8.95171 11.4717 9.31337 11.9734 9.82671 12.58C10.3517 13.1867 10.9117 13.805 11.5184 14.4234C12.1484 15.0417 12.755 15.6134 13.3734 16.1384C13.98 16.6517 14.4817 17.0017 14.8784 17.2117C14.9367 17.235 15.0067 17.27 15.0884 17.305C15.1817 17.34 15.275 17.3517 15.38 17.3517C15.5784 17.3517 15.73 17.2817 15.8584 17.1534L16.745 16.2784C17.0367 15.9867 17.3167 15.765 17.585 15.625C17.8534 15.4617 18.1217 15.38 18.4134 15.38C18.635 15.38 18.8684 15.4267 19.125 15.5317C19.3817 15.6367 19.65 15.7884 19.9417 15.9867L23.8034 18.7284C24.1067 18.9384 24.3167 19.1834 24.445 19.475C24.5617 19.7667 24.6317 20.0584 24.6317 20.385Z" stroke="#3E4096" stroke-width="2.6" stroke-miterlimit="10"/>
<path d="M20.5833 9.50008C20.5833 8.80008 20.035 7.72675 19.2183 6.85175C18.4717 6.04675 17.48 5.41675 16.5 5.41675" stroke="#3E4096" stroke-width="2.6" stroke-linecap="round" stroke-linejoin="round"/>
<path d="M24.6667 9.50004C24.6667 4.98504 21.015 1.33337 16.5 1.33337" stroke="#3E4096" stroke-width="2.6" stroke-linecap="round" stroke-linejoin="round"/>
</svg>
