<svg width="18" height="18" viewBox="0 0 18 18" fill="none" xmlns="http://www.w3.org/2000/svg">
<path d="M17.6131 0.383256C17.1021 -0.127752 16.2779 -0.127752 15.767 0.383256L8.99814 7.15319L2.22926 0.383256C1.71833 -0.127752 0.894126 -0.127752 0.383197 0.383256C-0.127732 0.894265 -0.127732 1.71859 0.383197 2.2296L7.15208 8.99953L0.383197 15.7695C-0.127732 16.2805 -0.127732 17.1048 0.383197 17.6158C0.636797 17.8694 0.972444 17.9963 1.30809 17.9963C1.64374 17.9963 1.97566 17.8694 2.23298 17.6121L8.99814 10.8459L15.767 17.6158C16.0206 17.8694 16.3563 18 16.6919 18C17.0276 18 17.3595 17.8732 17.6168 17.6195C18.1277 17.1085 18.1277 16.2842 17.6168 15.7732L10.8442 8.99953L17.6131 2.2296C18.1203 1.71859 18.1203 0.894265 17.6131 0.383256Z" fill="black"/>
</svg>
