<svg width="28" height="28" viewBox="0 0 28 28" fill="none" xmlns="http://www.w3.org/2000/svg">
<path d="M19.8334 11.6666H22.1667C24.5 11.6666 25.6667 10.4999 25.6667 8.16659V5.83325C25.6667 3.49992 24.5 2.33325 22.1667 2.33325H19.8334C17.5 2.33325 16.3334 3.49992 16.3334 5.83325V8.16659C16.3334 10.4999 17.5 11.6666 19.8334 11.6666Z" stroke="#3E4096" stroke-width="2.6" stroke-miterlimit="10" stroke-linecap="round" stroke-linejoin="round"/>
<path d="M5.83337 25.6666H8.16671C10.5 25.6666 11.6667 24.4999 11.6667 22.1666V19.8333C11.6667 17.4999 10.5 16.3333 8.16671 16.3333H5.83337C3.50004 16.3333 2.33337 17.4999 2.33337 19.8333V22.1666C2.33337 24.4999 3.50004 25.6666 5.83337 25.6666Z" stroke="#3E4096" stroke-width="2.6" stroke-miterlimit="10" stroke-linecap="round" stroke-linejoin="round"/>
<path d="M7.00004 11.6666C9.57737 11.6666 11.6667 9.57725 11.6667 6.99992C11.6667 4.42259 9.57737 2.33325 7.00004 2.33325C4.42271 2.33325 2.33337 4.42259 2.33337 6.99992C2.33337 9.57725 4.42271 11.6666 7.00004 11.6666Z" stroke="#3E4096" stroke-width="2.6" stroke-miterlimit="10" stroke-linecap="round" stroke-linejoin="round"/>
<path d="M21 25.6666C23.5774 25.6666 25.6667 23.5772 25.6667 20.9999C25.6667 18.4226 23.5774 16.3333 21 16.3333C18.4227 16.3333 16.3334 18.4226 16.3334 20.9999C16.3334 23.5772 18.4227 25.6666 21 25.6666Z" stroke="#3E4096" stroke-width="2.6" stroke-miterlimit="10" stroke-linecap="round" stroke-linejoin="round"/>
</svg>
