<svg width="21" height="15" viewBox="0 0 21 15" fill="none" xmlns="http://www.w3.org/2000/svg">
<path d="M21 7.51369C21 7.51369 16.7725 14.8099 10.4995 14.8099C4.22621 14.8099 0 7.51369 0 7.51369C0 7.51369 4.22621 0.19043 10.4995 0.19043C16.7725 0.19043 21 7.51369 21 7.51369ZM15.6419 7.51369C15.6419 4.6869 13.3263 2.37168 10.4995 2.37168C7.67269 2.37168 5.35705 4.6867 5.35705 7.51369C5.35705 10.3409 7.67269 12.6561 10.4995 12.6561C13.3263 12.6561 15.6419 10.3411 15.6419 7.51369ZM10.4995 5.19867C9.23445 5.19867 8.21092 6.27533 8.21092 7.51369C8.21092 8.77913 9.23445 9.80224 10.4995 9.80224C11.7385 9.80224 12.8149 8.77913 12.8149 7.51369C12.8149 6.27533 11.7385 5.19867 10.4995 5.19867Z" fill="white"/>
</svg>
