<svg width="26" height="28" viewBox="0 0 26 28" fill="none" xmlns="http://www.w3.org/2000/svg">
<path d="M6.5 11.6668V9.3335C6.5 5.47183 7.58333 2.3335 13 2.3335C18.4167 2.3335 19.5 5.47183 19.5 9.3335V11.6668" stroke="#FF1111" stroke-width="2.6" stroke-linecap="round" stroke-linejoin="round"/>
<path d="M13 21.5833C14.4957 21.5833 15.7083 20.2775 15.7083 18.6667C15.7083 17.0558 14.4957 15.75 13 15.75C11.5042 15.75 10.2916 17.0558 10.2916 18.6667C10.2916 20.2775 11.5042 21.5833 13 21.5833Z" stroke="#FF1111" stroke-width="2.6" stroke-linecap="round" stroke-linejoin="round"/>
<path d="M18.4166 25.6665H7.58329C3.24996 25.6665 2.16663 24.4998 2.16663 19.8332V17.4998C2.16663 12.8332 3.24996 11.6665 7.58329 11.6665H18.4166C22.75 11.6665 23.8333 12.8332 23.8333 17.4998V19.8332C23.8333 24.4998 22.75 25.6665 18.4166 25.6665Z" stroke="#FF1111" stroke-width="2.6" stroke-linecap="round" stroke-linejoin="round"/>
</svg>
