<svg width="22" height="26" viewBox="0 0 22 26" fill="none" xmlns="http://www.w3.org/2000/svg">
<path d="M14.8019 22.2222C14.6922 24.328 13.0319 26 11 26C8.96805 26 7.30785 24.328 7.19808 22.2222H2.54265C1.13847 22.2222 0 21.029 0 19.5556C0 18.0842 1.13751 16.8889 2.53934 16.8889C2.5377 16.8889 2.53846 11.5552 2.53846 11.5552C2.53846 7.79848 4.77478 4.50476 8.03846 3.22613V3.109C8.03846 1.39246 9.36627 0 11 0C12.6355 0 13.9615 1.39163 13.9615 3.109V3.2262C17.2251 4.505 19.4615 7.79928 19.4615 11.5552V16.8881C20.8604 16.8889 22 18.0837 22 19.5556C22 21.0273 20.8606 22.2222 19.4574 22.2222H14.8019ZM13.1049 22.2222H8.89506C9.00119 23.3452 9.9031 24.2222 11 24.2222C12.0969 24.2222 12.9988 23.3452 13.1049 22.2222ZM9.11911 4.72215C6.24622 5.59263 4.23077 8.36545 4.23077 11.5552V16.8881C4.23077 17.8697 3.47257 18.6667 2.53934 18.6667C2.07224 18.6667 1.69231 19.0659 1.69231 19.5556C1.69231 20.0462 2.07225 20.4444 2.54265 20.4444H19.4574C19.9266 20.4444 20.3077 20.0448 20.3077 19.5556C20.3077 19.0663 19.9265 18.6667 19.4607 18.6667C18.5256 18.6667 17.7692 17.8725 17.7692 16.8881V11.5552C17.7692 8.36623 15.7536 5.59276 12.8809 4.72219L12.2692 4.53684V3.109C12.2692 2.37387 11.7012 1.77778 11 1.77778C10.3003 1.77778 9.73077 2.37499 9.73077 3.109V4.53682L9.11911 4.72215Z" fill="#3E4096"/>
</svg>
