<svg width="28" height="28" viewBox="0 0 28 28" fill="none" xmlns="http://www.w3.org/2000/svg">
<path d="M14 17.5C15.933 17.5 17.5 15.933 17.5 14C17.5 12.067 15.933 10.5 14 10.5C12.067 10.5 10.5 12.067 10.5 14C10.5 15.933 12.067 17.5 14 17.5Z" stroke="#777879" stroke-width="2.6" stroke-miterlimit="10" stroke-linecap="round" stroke-linejoin="round"/>
<path d="M2.33337 15.0266V12.9733C2.33337 11.76 3.32504 10.7566 4.55004 10.7566C6.66171 10.7566 7.52504 9.2633 6.46337 7.43163C5.85671 6.38163 6.21837 5.01663 7.28004 4.40997L9.29837 3.25497C10.22 2.70663 11.41 3.0333 11.9584 3.95497L12.0867 4.17663C13.1367 6.0083 14.8634 6.0083 15.925 4.17663L16.0534 3.95497C16.6017 3.0333 17.7917 2.70663 18.7134 3.25497L20.7317 4.40997C21.7934 5.01663 22.155 6.38163 21.5484 7.43163C20.4867 9.2633 21.35 10.7566 23.4617 10.7566C24.675 10.7566 25.6784 11.7483 25.6784 12.9733V15.0266C25.6784 16.24 24.6867 17.2433 23.4617 17.2433C21.35 17.2433 20.4867 18.7366 21.5484 20.5683C22.155 21.63 21.7934 22.9833 20.7317 23.59L18.7134 24.745C17.7917 25.2933 16.6017 24.9666 16.0534 24.045L15.925 23.8233C14.875 21.9916 13.1484 21.9916 12.0867 23.8233L11.9584 24.045C11.41 24.9666 10.22 25.2933 9.29837 24.745L7.28004 23.59C6.21837 22.9833 5.85671 21.6183 6.46337 20.5683C7.52504 18.7366 6.66171 17.2433 4.55004 17.2433C3.32504 17.2433 2.33337 16.24 2.33337 15.0266Z" stroke="#777879" stroke-width="2.6" stroke-miterlimit="10" stroke-linecap="round" stroke-linejoin="round"/>
</svg>
