<svg width="23" height="23" viewBox="0 0 23 23" fill="none" xmlns="http://www.w3.org/2000/svg">
<path d="M17.2721 6.46251C17.0521 6.42584 16.823 6.41669 16.5846 6.41669H7.41798C7.16131 6.41669 6.91381 6.43502 6.67548 6.47169C6.80381 6.21502 6.98714 5.97672 7.20714 5.75672L10.1863 2.76837C11.4421 1.52171 13.4771 1.52171 14.733 2.76837L16.3371 4.39084C16.9238 4.96834 17.2355 5.70168 17.2721 6.46251Z" stroke="#3E4096" stroke-width="2" stroke-linecap="round" stroke-linejoin="round"/>
<path d="M9.25002 17.4167C9.25002 18.1042 9.05752 18.755 8.71835 19.305C8.08585 20.3683 6.92169 21.0833 5.58335 21.0833C4.24502 21.0833 3.08085 20.3683 2.44835 19.305C2.10919 18.755 1.91669 18.1042 1.91669 17.4167C1.91669 15.3908 3.55752 13.75 5.58335 13.75C7.60919 13.75 9.25002 15.3908 9.25002 17.4167Z" stroke="#3E4096" stroke-width="2" stroke-miterlimit="10" stroke-linecap="round" stroke-linejoin="round"/>
<path d="M6.95078 17.3978H4.21912" stroke="#3E4096" stroke-width="2" stroke-miterlimit="10" stroke-linecap="round" stroke-linejoin="round"/>
<path d="M5.58337 16.0596V18.8004" stroke="#3E4096" stroke-width="2" stroke-miterlimit="10" stroke-linecap="round" stroke-linejoin="round"/>
<path d="M21.1666 11V15.5833C21.1666 18.3333 19.3333 20.1666 16.5833 20.1666H7.99415C8.27831 19.9283 8.52581 19.635 8.71831 19.305C9.05748 18.755 9.24998 18.1041 9.24998 17.4166C9.24998 15.3908 7.60915 13.75 5.58331 13.75C4.48331 13.75 3.50248 14.2358 2.83331 14.9966V11C2.83331 8.50663 4.33665 6.76496 6.67415 6.47162C6.91248 6.43496 7.15998 6.41663 7.41665 6.41663H16.5833C16.8216 6.41663 17.0508 6.42578 17.2708 6.46245C19.6358 6.73745 21.1666 8.48829 21.1666 11Z" stroke="#3E4096" stroke-width="2" stroke-linecap="round" stroke-linejoin="round"/>
<path d="M21.1666 11.4584H18.4166C17.4083 11.4584 16.5833 12.2834 16.5833 13.2917C16.5833 14.3 17.4083 15.125 18.4166 15.125H21.1666" stroke="#3E4096" stroke-width="2" stroke-linecap="round" stroke-linejoin="round"/>
</svg>
